<svg width="144" height="32" viewBox="0 0 144 32" fill="none" xmlns="http://www.w3.org/2000/svg">
<path d="M19.2837 13.3964L19.2838 13.3964L19.2861 13.3906L21.7802 7.14789L21.7808 7.14812L21.7848 7.13471L23.2312 2.31751C23.3648 1.87278 23.9918 1.86528 24.1359 2.30669L25.7136 7.13831L25.7135 7.13835L25.7155 7.14378L25.8638 7.08926L25.7155 7.14383L25.7156 7.14397L25.7158 7.1445L25.7165 7.14662L25.7196 7.15498L25.7317 7.18773L25.7784 7.31404C25.8192 7.42397 25.8786 7.58365 25.9531 7.78275C26.1023 8.18093 26.3122 8.73683 26.5552 9.36779C27.0411 10.629 27.6604 12.1927 28.192 13.3959C29.7146 16.8419 32.0984 20.9088 34.2557 24.3343C34.4037 24.5693 34.3024 24.8655 34.0486 25.0674C33.7948 25.2694 33.4893 25.2976 33.2997 25.0982L24.4617 15.8019C24.0256 15.3432 23.2944 15.3432 22.8583 15.8019L14.38 24.7198C14.1912 24.9184 13.8797 24.888 13.6169 24.6773C13.3543 24.4668 13.2507 24.1635 13.3992 23.9297C15.5162 20.5948 17.8039 16.7125 19.2837 13.3964Z" fill="url(#paint0_linear_39_16)" stroke="black" stroke-width="0.316049"/>
<path d="M45.9602 25V7.60425H57.1432V10.5864H49.2405V14.7365H56.4473V17.7186H49.2405V22.0179H57.2923V25H45.9602ZM59.8199 25V7.60425H62.9511V25H59.8199ZM66.421 25V7.60425H69.5522V25H66.421ZM72.9723 20.0795V17.2465H80.3282V20.0795H72.9723ZM89.3651 25.3479C88.1391 25.3479 87.054 25.0911 86.1096 24.5775C85.1818 24.0474 84.4529 23.3101 83.9227 22.3658C83.4091 21.4049 83.1523 20.2783 83.1523 18.986V18.6878C83.1523 17.3956 83.4091 16.2773 83.9227 15.3329C84.4363 14.372 85.157 13.6348 86.0848 13.1212C87.0125 12.591 88.0894 12.326 89.3154 12.326C90.5248 12.326 91.5768 12.5993 92.4715 13.146C93.3661 13.6762 94.062 14.4217 94.559 15.3826C95.056 16.327 95.3045 17.4287 95.3045 18.6878V19.7564H86.3333C86.3664 20.6014 86.6812 21.2889 87.2776 21.8191C87.874 22.3492 88.603 22.6143 89.4645 22.6143C90.3426 22.6143 90.9887 22.4238 91.4029 22.0427C91.8171 21.6617 92.1319 21.2392 92.3472 20.7753L94.9069 22.1173C94.675 22.548 94.3353 23.0202 93.888 23.5338C93.4572 24.0308 92.8774 24.4616 92.1484 24.826C91.4195 25.174 90.4917 25.3479 89.3651 25.3479ZM86.3581 17.4204H92.1236C92.0573 16.708 91.7674 16.1364 91.2538 15.7057C90.7568 15.2749 90.1024 15.0596 89.2906 15.0596C88.4456 15.0596 87.7746 15.2749 87.2776 15.7057C86.7806 16.1364 86.4741 16.708 86.3581 17.4204ZM98.0915 25V12.6739H101.173V14.2892H101.62C101.819 13.8584 102.192 13.4525 102.739 13.0715C103.285 12.6739 104.114 12.4751 105.224 12.4751C106.185 12.4751 107.021 12.6987 107.734 13.146C108.463 13.5768 109.026 14.1815 109.424 14.9602C109.821 15.7223 110.02 16.6169 110.02 17.6441V25H106.889V17.8926C106.889 16.9648 106.657 16.269 106.193 15.8051C105.746 15.3412 105.1 15.1093 104.255 15.1093C103.294 15.1093 102.548 15.4323 102.018 16.0785C101.488 16.708 101.223 17.5944 101.223 18.7375V25H98.0915ZM117.232 25.3479C116.354 25.3479 115.567 25.1988 114.871 24.9006C114.175 24.5858 113.62 24.1385 113.206 23.5586C112.809 22.9622 112.61 22.2415 112.61 21.3966C112.61 20.5517 112.809 19.8475 113.206 19.2843C113.62 18.7044 114.184 18.2736 114.896 17.992C115.625 17.6938 116.453 17.5447 117.381 17.5447H120.761V16.8488C120.761 16.269 120.579 15.7968 120.214 15.4323C119.85 15.0513 119.27 14.8608 118.475 14.8608C117.696 14.8608 117.116 15.043 116.735 15.4075C116.354 15.7554 116.106 16.211 115.99 16.7743L113.107 15.8051C113.306 15.1755 113.62 14.604 114.051 14.0904C114.498 13.5602 115.087 13.1378 115.816 12.823C116.561 12.4916 117.464 12.326 118.524 12.326C120.148 12.326 121.432 12.7319 122.376 13.5437C123.321 14.3555 123.793 15.5317 123.793 17.0725V21.67C123.793 22.167 124.025 22.4155 124.489 22.4155H125.483V25H123.395C122.782 25 122.277 24.8509 121.879 24.5527C121.482 24.2545 121.283 23.8569 121.283 23.3598V23.335H120.811C120.744 23.5338 120.595 23.7989 120.363 24.1302C120.131 24.445 119.767 24.7266 119.27 24.9751C118.773 25.2237 118.094 25.3479 117.232 25.3479ZM117.779 22.8131C118.657 22.8131 119.369 22.5729 119.916 22.0924C120.479 21.5954 120.761 20.941 120.761 20.1292V19.8807H117.605C117.025 19.8807 116.569 20.0049 116.238 20.2534C115.907 20.502 115.741 20.8499 115.741 21.2972C115.741 21.7445 115.915 22.109 116.263 22.3906C116.611 22.6723 117.116 22.8131 117.779 22.8131Z" fill="white"/>
<defs>
<linearGradient id="paint0_linear_39_16" x1="4.2416" y1="-1.9568" x2="39.32" y2="28.9978" gradientUnits="userSpaceOnUse">
<stop stop-color="#0048FF"/>
<stop offset="0.54528" stop-color="#2F8EF1"/>
<stop offset="1" stop-color="#45B3DB"/>
</linearGradient>
</defs>
</svg>
