<svg width="22" height="25" viewBox="0 0 22 25" fill="none" xmlns="http://www.w3.org/2000/svg">
<path d="M12.7136 6.13831L12.7135 6.13835L12.7155 6.14378L12.8638 6.08926L12.7155 6.14383L12.7156 6.14397L12.7158 6.1445L12.7165 6.14662L12.7196 6.15498L12.7317 6.18773L12.7784 6.31404C12.8192 6.42397 12.8786 6.58365 12.9531 6.78275C13.1023 7.18093 13.3122 7.73683 13.5552 8.36779C14.0411 9.62903 14.6604 11.1927 15.192 12.3959C16.7146 15.8419 19.0984 19.9088 21.2557 23.3343C21.4037 23.5693 21.3024 23.8655 21.0486 24.0674C20.7948 24.2694 20.4893 24.2976 20.2997 24.0982L11.4617 14.8019C11.0256 14.3432 10.2944 14.3432 9.8583 14.8019L1.37999 23.7198C1.19125 23.9184 0.879737 23.888 0.616919 23.6773C0.354293 23.4668 0.250704 23.1635 0.399164 22.9297C2.51618 19.5948 4.80391 15.7125 6.28365 12.3964L6.28377 12.3964L6.28609 12.3906L8.78024 6.14789L8.78082 6.14812L8.78485 6.13471L10.2312 1.31751C10.3648 0.872784 10.9918 0.865285 11.1359 1.30669L12.7136 6.13831Z" fill="url(#paint0_linear_33_8)" stroke="black" stroke-width="0.316049"/>
<defs>
<linearGradient id="paint0_linear_33_8" x1="-8.7584" y1="-2.9568" x2="26.32" y2="27.9978" gradientUnits="userSpaceOnUse">
<stop stop-color="#0048FF"/>
<stop offset="0.54528" stop-color="#2F8EF1"/>
<stop offset="1" stop-color="#45B3DB"/>
</linearGradient>
</defs>
</svg>
