<svg width="12" height="13" viewBox="0 0 12 13" fill="none" xmlns="http://www.w3.org/2000/svg">
<g clip-path="url(#clip0_103_1466)">
<path d="M7.67578 2.49712C7.57031 2.53696 7.5 2.63774 7.5 2.75024C7.5 2.86274 7.57031 2.96353 7.67578 3.00337L9 3.50024L9.49688 4.82446C9.53672 4.92993 9.6375 5.00024 9.75 5.00024C9.8625 5.00024 9.96328 4.92993 10.0031 4.82446L10.5 3.50024L11.8242 3.00337C11.9297 2.96353 12 2.86274 12 2.75024C12 2.63774 11.9297 2.53696 11.8242 2.49712L10.5 2.00024L10.0031 0.676025C9.96328 0.570557 9.8625 0.500244 9.75 0.500244C9.6375 0.500244 9.53672 0.570557 9.49688 0.676025L9 2.00024L7.67578 2.49712ZM4.80703 2.21821C4.74609 2.08462 4.6125 2.00024 4.46719 2.00024C4.32188 2.00024 4.18828 2.08462 4.12734 2.21821L2.88984 4.89009L0.217969 6.12524C0.084375 6.18618 0 6.31978 0 6.46743C0 6.61509 0.084375 6.74634 0.217969 6.80728L2.89219 8.04243L4.125 10.7143C4.18594 10.8479 4.31953 10.9323 4.46484 10.9323C4.61016 10.9323 4.74375 10.8479 4.80469 10.7143L6.03984 8.04009L8.71406 6.80493C8.84766 6.74399 8.93203 6.6104 8.93203 6.46509C8.93203 6.31978 8.84766 6.18618 8.71406 6.12524L6.04219 4.89243L4.80703 2.21821ZM9 9.50024L7.67578 9.99712C7.57031 10.037 7.5 10.1377 7.5 10.2502C7.5 10.3627 7.57031 10.4635 7.67578 10.5034L9 11.0002L9.49688 12.3245C9.53672 12.4299 9.6375 12.5002 9.75 12.5002C9.8625 12.5002 9.96328 12.4299 10.0031 12.3245L10.5 11.0002L11.8242 10.5034C11.9297 10.4635 12 10.3627 12 10.2502C12 10.1377 11.9297 10.037 11.8242 9.99712L10.5 9.50024L10.0031 8.17603C9.96328 8.07056 9.8625 8.00024 9.75 8.00024C9.6375 8.00024 9.53672 8.07056 9.49688 8.17603L9 9.50024Z" fill="url(#paint0_linear_103_1466)"/>
</g>
<defs>
<linearGradient id="paint0_linear_103_1466" x1="-1.76879" y1="0.500247" x2="12.571" y2="1.30701" gradientUnits="userSpaceOnUse">
<stop stop-color="#0048FF"/>
<stop offset="0.5" stop-color="#2F8FF1"/>
<stop offset="1" stop-color="#45B3DB"/>
</linearGradient>
<clipPath id="clip0_103_1466">
<rect width="12" height="12" fill="white" transform="translate(0 0.5)"/>
</clipPath>
</defs>
</svg>
